# xmcd
#
# Track frame offsets:
#	183
#	11418
#	21243
#	34598
#	43893
#	55980
#	66183
#	76763
#	87868
#	99768
#	110720
#	122828
#	133820
#	142870
#	153548
#	163343
#	176338
#	186330
#	197978
#	210295
#	222470
#	234078
#	242023
#	256368
#	269133
#
# Disc length: 3707 seconds
#
# Revision: 4
# Processed by: cddbd v1.5.2PL0 Copyright (c) Steve Scherf et al.
# Submitted via: EasyCDDAExtractor 16.0.6.1
#
DISCID=630e7919
DTITLE=Varios - C-067 25 Country Classics - Volume 4
DYEAR=1900
DGENRE=Country
TTITLE0=Hank Locklin - Send me The Pillow You Dream On
TTITLE1=Dave Dudley - Six Days on the Road
TTITLE2=Lynn Anderson - Rose Garden
TTITLE3=Frankie Laine - Rawhide
TTITLE4=Patsy Cline - Walkin' After Midnight
TTITLE5=Buck Owens - Rhythm and Booze
TTITLE6=Ferlin Husky - Wings of a Dove
TTITLE7=Kenny Rogers - Alwasy Leaving, Always Gone
TTITLE8=Johnny Lee - Ramblin Roses
TTITLE9=Willie Nelson - I Feel Sorry for Him
TTITLE10=Patsy Cline - In Care of the Blues
TTITLE11=Tex Ritter - Have I Stayed Away Too Long
TTITLE12=Kitty Wells - I'll Reposses My Heart
TTITLE13=Stonewall Jackson - Waterloo
TTITLE14=Dave Duddley - Last Days in the Mines
TTITLE15=Frankie Laine - Moonlight Gambler
TTITLE16=Carl Perkins - This Old House
TTITLE17=Johnny Lee - Candy Store
TTITLE18=Waylon Jennings - Don't Think Twice
TTITLE19=Stonewall Jackson - I Can't Get Enough Of You
TTITLE20=Patsy Cline - The Heart You Break May be Your Own
TTITLE21=Johnny Cash - Hey Good Lookin'
TTITLE22=George Jones - Open Pit Mine
TTITLE23=Willie Nelson - If I Don't Understand
TTITLE24=George Jones - Please Don't Let That Woman Get Me
EXTD=ID3G: 2
EXTT0=
EXTT1=
EXTT2=
EXTT3=
EXTT4=
EXTT5=
EXTT6=
EXTT7=
EXTT8=
EXTT9=
EXTT10=
EXTT11=
EXTT12=
EXTT13=
EXTT14=
EXTT15=
EXTT16=
EXTT17=
EXTT18=
EXTT19=
EXTT20=
EXTT21=
EXTT22=
EXTT23=
EXTT24=
PLAYORDER=
